REM DIRINDEX 1\2,1\3,1\4,1\5\6,1\5\7,1\8
REM DIRNAME cjc115,folder01,folder02,folder03,folder04,folder05,folder06,folder07
TITLE ""
FILE "028 【028】Unit2 (0313 distress_0324 spontaneous).mp3" MP3
  TRACK 01 AUDIO
    TITLE "0:"
    INDEX 01 00:00:00
  TRACK 02 AUDIO
    TITLE "2:cjc115_1054"
    INDEX 01 00:00:07
  TRACK 03 AUDIO
    TITLE "0:"
    INDEX 01 00:01:36
  TRACK 04 AUDIO
    TITLE "3:cjc115_1055"
    INDEX 01 00:01:44
  TRACK 05 AUDIO
    TITLE "0:"
    INDEX 01 00:04:09
  TRACK 06 AUDIO
    TITLE "4:cjc115_1056"
    INDEX 01 00:04:19
  TRACK 07 AUDIO
    TITLE "0:"
    INDEX 01 00:08:42
  TRACK 08 AUDIO
    TITLE "2:cjc115_1057"
    INDEX 01 00:09:51
  TRACK 09 AUDIO
    TITLE "0:"
    INDEX 01 00:10:66
  TRACK 10 AUDIO
    TITLE "3:cjc115_1058"
    INDEX 01 00:10:72
  TRACK 11 AUDIO
    TITLE "0:"
    INDEX 01 00:13:24
  TRACK 12 AUDIO
    TITLE "4:cjc115_1059"
    INDEX 01 00:13:30
  TRACK 13 AUDIO
    TITLE "0:"
    INDEX 01 00:16:61
  TRACK 14 AUDIO
    TITLE "2:cjc115_1060"
    INDEX 01 00:17:70
  TRACK 15 AUDIO
    TITLE "0:"
    INDEX 01 00:19:22
  TRACK 16 AUDIO
    TITLE "3:cjc115_1061"
    INDEX 01 00:19:28
  TRACK 17 AUDIO
    TITLE "0:"
    INDEX 01 00:21:29
  TRACK 18 AUDIO
    TITLE "4:cjc115_1062"
    INDEX 01 00:21:39
  TRACK 19 AUDIO
    TITLE "0:"
    INDEX 01 00:25:11
  TRACK 20 AUDIO
    TITLE "2:cjc115_1063"
    INDEX 01 00:26:20
  TRACK 21 AUDIO
    TITLE "0:"
    INDEX 01 00:27:39
  TRACK 22 AUDIO
    TITLE "3:cjc115_1064"
    INDEX 01 00:27:47
  TRACK 23 AUDIO
    TITLE "0:"
    INDEX 01 00:29:29
  TRACK 24 AUDIO
    TITLE "4:cjc115_1065"
    INDEX 01 00:29:36
  TRACK 25 AUDIO
    TITLE "0:"
    INDEX 01 00:32:39
  TRACK 26 AUDIO
    TITLE "2:cjc115_1066"
    INDEX 01 00:33:48
  TRACK 27 AUDIO
    TITLE "0:"
    INDEX 01 00:35:06
  TRACK 28 AUDIO
    TITLE "3:cjc115_1067"
    INDEX 01 00:35:14
  TRACK 29 AUDIO
    TITLE "0:"
    INDEX 01 00:36:27
  TRACK 30 AUDIO
    TITLE "4:cjc115_1068"
    INDEX 01 00:36:35
  TRACK 31 AUDIO
    TITLE "0:"
    INDEX 01 00:40:15
  TRACK 32 AUDIO
    TITLE "2:cjc115_1069"
    INDEX 01 00:41:22
  TRACK 33 AUDIO
    TITLE "0:"
    INDEX 01 00:42:45
  TRACK 34 AUDIO
    TITLE "3:cjc115_1070"
    INDEX 01 00:42:55
  TRACK 35 AUDIO
    TITLE "0:"
    INDEX 01 00:43:66
  TRACK 36 AUDIO
    TITLE "4:cjc115_1071"
    INDEX 01 00:43:70
  TRACK 37 AUDIO
    TITLE "0:"
    INDEX 01 00:47:50
  TRACK 38 AUDIO
    TITLE "2:cjc115_1072"
    INDEX 01 00:48:59
  TRACK 39 AUDIO
    TITLE "0:"
    INDEX 01 00:50:05
  TRACK 40 AUDIO
    TITLE "3:cjc115_1073"
    INDEX 01 00:50:15
  TRACK 41 AUDIO
    TITLE "0:"
    INDEX 01 00:51:50
  TRACK 42 AUDIO
    TITLE "4:cjc115_1074"
    INDEX 01 00:51:60
  TRACK 43 AUDIO
    TITLE "0:"
    INDEX 01 00:54:72
  TRACK 44 AUDIO
    TITLE "2:cjc115_1075"
    INDEX 01 00:56:02
  TRACK 45 AUDIO
    TITLE "0:"
    INDEX 01 00:57:15
  TRACK 46 AUDIO
    TITLE "3:cjc115_1076"
    INDEX 01 00:57:21
  TRACK 47 AUDIO
    TITLE "0:"
    INDEX 01 00:58:26
  TRACK 48 AUDIO
    TITLE "4:cjc115_1077"
    INDEX 01 00:58:34
  TRACK 49 AUDIO
    TITLE "0:"
    INDEX 01 01:02:50
  TRACK 50 AUDIO
    TITLE "2:cjc115_1078"
    INDEX 01 01:03:57
  TRACK 51 AUDIO
    TITLE "0:"
    INDEX 01 01:04:72
  TRACK 52 AUDIO
    TITLE "3:cjc115_1079"
    INDEX 01 01:05:05
  TRACK 53 AUDIO
    TITLE "0:"
    INDEX 01 01:07:17
  TRACK 54 AUDIO
    TITLE "4:cjc115_1080"
    INDEX 01 01:07:25
  TRACK 55 AUDIO
    TITLE "0:"
    INDEX 01 01:11:74
  TRACK 56 AUDIO
    TITLE "2:cjc115_1081"
    INDEX 01 01:13:02
  TRACK 57 AUDIO
    TITLE "0:"
    INDEX 01 01:14:12
  TRACK 58 AUDIO
    TITLE "3:cjc115_1082"
    INDEX 01 01:14:19
  TRACK 59 AUDIO
    TITLE "0:"
    INDEX 01 01:15:54
  TRACK 60 AUDIO
    TITLE "4:cjc115_1083"
    INDEX 01 01:15:68
  TRACK 61 AUDIO
    TITLE "0:"
    INDEX 01 01:19:36
  TRACK 62 AUDIO
    TITLE "2:cjc115_1084"
    INDEX 01 01:20:44
  TRACK 63 AUDIO
    TITLE "0:"
    INDEX 01 01:21:65
  TRACK 64 AUDIO
    TITLE "3:cjc115_1085"
    INDEX 01 01:21:72
  TRACK 65 AUDIO
    TITLE "0:"
    INDEX 01 01:23:16
  TRACK 66 AUDIO
    TITLE "4:cjc115_1086"
    INDEX 01 01:23:24
  TRACK 67 AUDIO
    TITLE "0:"
    INDEX 01 01:26:68
  TRACK 68 AUDIO
    TITLE "2:cjc115_1087"
    INDEX 01 01:28:04
  TRACK 69 AUDIO
    TITLE "0:"
    INDEX 01 01:29:56
  TRACK 70 AUDIO
    TITLE "3:cjc115_1088"
    INDEX 01 01:29:62
  TRACK 71 AUDIO
    TITLE "0:"
    INDEX 01 01:33:38
  TRACK 72 AUDIO
    TITLE "4:cjc115_1089"
    INDEX 01 01:33:42
  TRACK 73 AUDIO
    TITLE "0:"
    INDEX 01 01:37:54
